<?xml version="1.0" encoding="utf-8"?>
<!-- Svg Vector Icons : http://www.onlinewebfonts.com/icon -->
<!DOCTYPE svg PUBLIC "-//W3C//DTD SVG 1.1//EN" "http://www.w3.org/Graphics/SVG/1.1/DTD/svg11.dtd">
<svg version="1.1" xmlns="http://www.w3.org/2000/svg" xmlns:xlink="http://www.w3.org/1999/xlink" x="0px" y="0px" viewBox="0 0 1000 1000" enable-background="new 0 0 1000 1000" xml:space="preserve">
<metadata> Svg Vector Icons : http://www.onlinewebfonts.com/icon </metadata>
<g><g transform="translate(0.000000,512.000000) scale(0.100000,-0.100000)"><path d="M6175.9,4997.8c-191.5-61.3-321.8-277.7-293.1-486.5c5.8-47.9,13.4-105.3,15.3-124.5c5.8-34.5-19.2-42.1-243.3-80.4c-342.8-59.4-327.5-61.3-342.8,34.5c-19.2,114.9-116.8,340.9-185.8,423.3c-147.5,178.1-386.9,203-655,68.9c-151.3-78.5-268.1-189.6-319.9-306.5c-32.6-78.5-40.2-126.4-34.5-249c3.8-84.3,5.7-151.3,5.7-151.3c-1.9,0-113-21.1-249-47.9c-137.9-26.8-250.9-47.9-250.9-47.9c-1.9,0-9.6,51.7-15.3,116.8c-32.6,283.5-141.7,517.1-266.2,574.6c-166.6,74.7-519.1,28.7-779.5-103.4c-105.3-51.7-130.2-74.7-172.4-155.1c-42.1-84.3-47.9-126.4-57.5-371.6l-9.6-277.7l-593.7-147.5c-649.3-160.9-890.6-233.7-934.7-283.5c-36.4-42.1-78.5-239.4-126.4-616.7c-63.2-486.5-103.4-932.8-105.3-1187.5c-1.9-237.5,0-245.2,203-1151.1c618.7-2754.2,1040-4476.1,1200.9-4903.2c78.5-204.9,235.6-304.6,488.4-304.6c168.6,0,505.7,59.4,1093.7,191.5c285.4,65.1,861.9,191.5,1283.3,279.6c2930.5,620.6,4052.8,886.8,4334.4,1030.5c86.2,44,101.5,61.3,136,155.1c114.9,304.5,168.5,1174.1,116.8,1877c-70.9,953.8-371.6,2610.6-670.4,3696.6c-172.4,626.3-411.8,1292.8-595.7,1664.4c-134.1,268.1-195.4,348.6-279.6,377.3c-93.8,30.6-415.6,11.5-683.8-40.2c-224.1-44.1-260.5-42.1-260.5,17.2c0,21.1-21.1,107.3-49.8,193.5c-55.6,178.1-124.5,268.1-243.3,316C6522.5,5024.6,6290.8,5034.1,6175.9,4997.8z M6484.2,4827.3c224.1-116.8,344.8-540.1,214.5-754.6c-69-111.1-214.5-55.6-239.4,91.9c-19.2,116.8-70.9,166.6-197.3,193.4c-130.2,26.8-170.5,65.1-187.7,180c-9.6,65.1-3.8,99.6,21.1,139.8C6189.3,4823.5,6361.7,4890.5,6484.2,4827.3z M4906,4731.5c155.2-65.1,262.4-300.7,264.3-586.1c1.9-268.1-42.1-363.9-164.7-363.9c-67,0-99.6,40.2-113,141.7c-13.4,91.9-53.6,187.7-105.3,247.1c-34.5,38.3-147.5,44.1-293.1,9.6c-93.8-21.1-99.6-21.1-134.1,21.1c-82.4,99.6-19.2,273.9,153.2,429C4653.2,4754.5,4773.8,4787.1,4906,4731.5z M3241.6,4540c61.3-40.2,143.6-185.8,176.2-306.5c15.3-53.6,34.5-214.5,46-360.1c24.9-310.3,11.5-358.2-101.5-386.9c-47.9-11.5-88.1-11.5-114.9,1.9c-40.2,17.2-47.9,40.2-67,237.5c-44.1,409.9-99.6,515.2-275.8,515.2c-51.7,0-124.5-11.5-160.9-26.8c-63.2-26.8-67-26.8-105.3,21.1c-90,114.9-21.1,220.3,195.4,291.1C3040.5,4591.7,3155.4,4597.5,3241.6,4540z M7727.3,4210.6c34.5-9.6,68.9-95.8,233.7-588c620.6-1863.6,873.4-2986,1026.6-4571.9c38.3-379.2,59.4-1208.6,34.5-1302.4c-15.3-63.2-26.8-70.9-168.5-118.8c-342.9-114.9-1961.3-536.3-2882.6-750.8c-1218.2-283.5-2399.9-475-2963-478.8c-268.1-1.9-273.9-1.9-321.8,47.9c-78.5,76.6-185.8,417.5-373.5,1181.8c-95.8,386.9-262.4,1068.8-373.5,1517c-293,1189.4-639.7,2796.4-796.8,3692.7c-47.9,272-53.6,339-32.5,350.5c32.5,21.1,1788.9,438.6,1844.5,438.6c1.9,0,11.5-38.3,17.2-86.2c30.7-201.1,216.4-285.4,467.3-210.7c164.7,49.8,195.4,88.1,218.4,277.7c9.6,90,21.1,164.7,24.9,168.5c13.4,15.3,913.6,157.1,930.8,147.5c9.6-7.7,17.2-40.2,17.2-72.8c1.9-99.6,63.2-214.5,132.1-243.2c141.7-57.5,423.3,34.5,513.3,170.5c24.9,36.4,49.8,97.7,55.5,136l11.5,70.9l386.9,51.7c210.7,28.7,429,59.4,482.7,67l99.6,15.3l11.5-76.6c17.2-105.3,63.2-183.9,118.7-204.9c76.6-30.6,241.3-21.1,323.7,17.2c99.6,46,136,88.1,191.5,226l46,111.1l139.8,11.5C7344.2,4220.1,7677.5,4224,7727.3,4210.6z M1163.4,755.3c476.9-2039.8,940.4-3874.7,1101.3-4367c70.9-214.5,91.9-239.4,249-300.7c105.3-40.2,463.5-26.8,1082.2,42.1c1415.4,159,2116.4,314.1,4635.1,1024.7c300.7,86.2,595.7,159,655.1,166.6c105.3,11.5,109.2,9.6,120.7-38.3c15.3-59.4-23-252.8-53.6-277.7c-113-93.9-2518.7-672.3-4386.1-1057.3c-312.2-63.2-829.4-180.1-1147.3-258.6c-632.1-157.1-764.2-172.4-892.5-107.3c-38.3,19.2-86.2,51.7-103.4,72.8c-180,199.2-645.5,1800.4-1189.4,4104.6c-262.4,1109-268.1,1130-258.6,1358c5.7,174.3,30.6,298.8,46,241.3C1025.5,1347.1,1088.7,1077.1,1163.4,755.3z"/><path d="M6909.4,3092c-802.5-137.9-3478.3-681.9-4309.5-873.4c-162.8-38.3-308.4-78.5-323.7-90c-34.5-28.7-17.2-302.6,26.8-448.2c24.9-86.2,36.4-101.5,76.6-101.5c172.4,0,2091.5,291.1,3859.4,584.2c1147.3,191.5,1379,233.7,1409.7,260.5c61.3,51.7,5.8,444.4-93.8,649.3c-40.2,82.4-46,86.2-128.3,90C7378.7,3164.8,7146.9,3134.1,6909.4,3092z M7401.7,2887.1c7.6-40.2,13.4-124.5,15.3-187.7v-114.9l-1110.9-185.8c-2309.9-385-3688.9-597.6-3746.4-580.3c-61.3,19.2-97.7,159-49.8,197.3c57.5,47.9,3723.4,766.1,4696.4,919.4C7390.2,2963.7,7384.4,2965.6,7401.7,2887.1z"/><path d="M1808.9,3061.4c-114.9-26.8-224.1-76.6-245.2-109.2c-17.2-24.9-3.8-130.2,61.3-463.5c32.6-157.1,69-300.7,84.3-316c44.1-42.1,189.6,15.3,197.3,78.5c1.9,24.9-24.9,164.7-59.4,310.3c-74.7,300.7-80.4,283.5,105.3,321.8c113,24.9,168.5,47.9,168.5,74.7c0,7.7-23,42.1-49.8,74.7C2015.8,3099.7,1981.3,3103.5,1808.9,3061.4z"/><path d="M7503.2,2101.8c-1674-293-4412.9-858.1-4976-1024.7l-141.7-42.1l13.4-76.6c19.2-124.5,396.5-1687.4,632.1-2625.9c239.4-951.9,358.2-1380.9,388.8-1411.6c23-23,237.5,7.7,980.6,149.4c2059,386.9,4242.5,865.7,4345.9,951.9c34.5,30.7,19.2,164.7-63.2,521c-141.7,616.7-739.3,2746.6-961.5,3424.6C7667.9,2128.6,7666,2130.5,7503.2,2101.8z M7576,1575.1c95.8-281.5,195.4-614.8,195.4-649.3c0-9.6-46-28.7-101.5-46c-103.4-28.7-823.6-182-829.3-176.2c-9.6,13.4-295,961.5-295,980.6c0,23,189.6,65.1,680,151.3C7497.4,1883.4,7463,1908.3,7576,1575.1z M6342.5,1578.9c84.3-185.8,262.4-722.1,287.3-865.7c9.6-57.5,5.8-74.7-23-90c-69-36.4-890.6-252.8-906-237.5c-28.7,30.6-419.5,1038.1-419.5,1084.1c0,49.8,702.9,220.3,911.7,222.2l97.7,1.9L6342.5,1578.9z M5118.6,1400.8c32.6-80.4,224.1-718.2,285.4-951.9c42.1-166.6,44.1-183.9,15.3-195.4C5369.5,232.4,4480.8,62,4360.1,52.4c-93.8-9.6-109.2-5.7-116.8,24.9c-5.7,21.1-51.7,174.3-99.6,342.8c-49.8,168.5-118.8,415.6-155.1,549.7l-63.2,245.2l122.6,38.3c118.8,36.4,634,149.4,850.4,187.7C5078.4,1471.6,5089.9,1469.7,5118.6,1400.8z M3844.9,837.7c124.5-423.3,191.5-683.8,191.5-754.6c0-63.2,44-49.8-517.1-168.6c-641.6-134.1-632.1-132.2-639.7-118.8c-15.3,23-224.1,980.6-235.6,1072.6l-11.5,93.9l141.7,30.6c316,70.9,873.4,180,919.4,182C3743.4,1176.7,3747.2,1167.1,3844.9,837.7z M7915,429.7c78.5-205,201.1-616.7,201.1-672.3c0-23-19.2-44.1-47.9-55.6c-59.4-23-835.1-195.4-840.8-187.7c-21.1,26.8-321.8,955.7-312.2,963.4c51.7,42.1,352.4,107.3,683.8,149.4c147.5,19.2,206.8,21.1,224.1,5.8C7836.5,621.2,7876.7,529.3,7915,429.7z M6771.5,243.9c97.7-254.7,258.6-770,247.1-796.8c-13.4-34.5-492.2-143.7-850.4-193.4c-78.5-11.5-82.4-9.6-107.2,51.7c-51.7,120.7-260.5,750.8-272,823.6c-13.4,69-11.5,72.8,55.5,99.6c124.5,51.7,649.3,157.1,800.6,160.9l70.9,1.9L6771.5,243.9z M5624.2,90.7c101.5-256.7,270.1-794.9,270.1-860c0-30.7-88.1-57.5-574.6-170.5c-528.6-124.5-2127.9-488.4-2145.2-488.4c-23,0-229.8,884.9-229.8,974.9c0,42.1,38.3,53.6,488.4,153.2C3756.8-229.2,4634-49.1,4657-49.1c7.7,0-13.4-36.4-46-80.4c-30.6-42.1-57.5-84.3-57.5-91.9c0-7.6,68.9-70.9,153.2-141.7L4860-491.6l-103.4-147.5c-155.1-222.2-153.2-220.3-95.8-289.2c26.8-32.6,65.1-59.4,82.4-59.4c21.1,0,86.2,70.9,164.7,182c72.8,99.6,139.8,182,149.4,182s99.6-38.3,201.1-86.2c99.6-47.9,187.7-86.2,195.4-86.2c7.6,0,46,40.2,84.3,90l70.9,90l-136,136l-136,137.9l76.6,111.1c44.1,61.3,78.5,116.8,78.5,124.5c0,5.7-38.3,44.1-86.2,82.4l-84.3,70.9L5220.1-87.4c-55.5-72.8-107.2-134.1-114.9-134.1c-24.9,0-285.4,197.3-273.9,206.9c13.4,15.3,657,153.2,720.2,155.1C5589.8,142.4,5607,129,5624.2,90.7z M8284.6-824.8c84.3-295,239.4-890.6,258.6-999.8l11.5-59.4l-402.2-99.6c-222.2-53.6-421.4-95.8-444.4-91.9c-46,5.7-111.1,176.2-321.8,848.5c-145.6,459.7-149.4,492.2-90,521c118.8,53.6,737.4,180,848.5,172.4C8202.3-537.5,8202.3-539.5,8284.6-824.8z M7091.4-796.1c21.1-32.6,277.7-881.1,337.1-1109c30.7-120.7,49.8-226,42.1-233.7c-15.3-13.4-850.4-189.6-900.2-189.6c-26.8,0-111.1,260.5-262.4,814c-126.4,457.8-139.8,530.6-103.4,559.3c42.1,36.4,293,97.7,522.9,128.3c116.8,17.2,231.7,32.6,258.6,36.4C7072.2-777,7079.9-777,7091.4-796.1z M6013.1-1102.6c63.2-183.9,277.7-942.3,312.2-1107.1c21.1-93.9,26.8-164.7,17.2-174.3c-19.2-19.2-551.6-122.6-1827.2-356.3c-490.3-90-907.9-166.6-928.9-172.4c-36.4-7.7-51.7,36.4-204.9,618.7c-90,344.8-159,634-151.3,641.6c59.4,61.3,2578,674.2,2710.2,658.9C5967.1-995.3,5988.2-1027.9,6013.1-1102.6z"/></g></g>
</svg>